# xmcd
#
# Track frame offsets:
#	150
#	14205
#	30862
#	54452
#	66610
#	84422
#	101360
#	118817
#	140260
#	152725
#	163617
#	175290
#	190490
#	204767
#	222222
#	240257
#	259380
#	274995
#	295137
#	309430
#
# Disc length: 4239 seconds
#
# Revision: 1
# Processed by: cddbd v1.5.1PL0 Copyright (c) Steve Scherf et al.
# Submitted via: EasyCDDAExtractor 7.1.0.1
#
DISCID=20108d14
DTITLE=Perry Wood - After Today Live In Concert
DYEAR=1900
DGENRE=
TTITLE0=After Today(After Today Perry Wood Live In Concert US CD Version)
TTITLE1=This The The Moment(After Today Perry Wood Live In Concert US CD Versi
TTITLE1=on)
TTITLE2=Something New In My Life(After Today Perry Wood Live In Concert US CD 
TTITLE2=Version)
TTITLE3=It Had To Be You(After Today Perry Wood Live In Concert US CD Version)
TTITLE4=Summertime(After Today Perry Wood Live In Concert US CD Version)
TTITLE5=Come Rain Or Come Shine(After Today Perry Wood Live In Concert US CD V
TTITLE5=ersion)
TTITLE6=Just In Time(After Today Perry Wood Live In Concert US CD Version)
TTITLE7=Why God Why(After Today Perry Wood Live In Concert US CD Version)
TTITLE8=Who Can I Turn To(After Today Perry Wood Live In Concert US CD Version
TTITLE8=)
TTITLE9=Medley:  Happy Days Are Here Again, Get Happy(After Today Perry Wood L
TTITLE9=ive In Concert US CD Version)
TTITLE10=Moment To Moment(After Today Perry Wood Live In Concert US CD Version
TTITLE10=)
TTITLE11=All The Things You Are(After Today Perry Wood Live In Concert US CD V
TTITLE11=ersion)
TTITLE12=Mean To Me(After Today Perry Wood Live In Concert US CD Version)
TTITLE13=Here's That Rainy Day(After Today Perry Wood Live In Concert US CD Ve
TTITLE13=rsion)
TTITLE14=Old Devil Moon(After Today Perry Wood Live In Concert US CD Version)
TTITLE15=My Foolish Heart(After Today Perry Wood Live In Concert US CD Version
TTITLE15=)
TTITLE16=You And I(After Today Perry Wood Live In Concert US CD Version)
TTITLE17=Memory(After Today Perry Wood Live In Concert US CD Version)
TTITLE18=Sometimes(After Today Perry Wood Live In Concert US CD Version)
TTITLE19=After Today Reprise(After Today Perry Wood Live In Concert US CD Vers
TTITLE19=ion)
EXTD=
EXTT0=
EXTT1=
EXTT2=
EXTT3=
EXTT4=
EXTT5=
EXTT6=
EXTT7=
EXTT8=
EXTT9=
EXTT10=
EXTT11=
EXTT12=
EXTT13=
EXTT14=
EXTT15=
EXTT16=
EXTT17=
EXTT18=
EXTT19=
PLAYORDER=
